<svg id="cast" xmlns="http://www.w3.org/2000/svg" width="39.111" height="32" viewBox="0 0 39.111 32">
  <path id="Trazado_13" data-name="Trazado 13" d="M0,192v3.556a16,16,0,0,1,16,16h3.556A19.556,19.556,0,0,0,0,192Z" transform="translate(0 -179.556)" fill="#fff"/>
  <path id="Trazado_14" data-name="Trazado 14" d="M0,277.333v3.556a8.892,8.892,0,0,1,8.889,8.889h3.556A12.447,12.447,0,0,0,0,277.333Z" transform="translate(0 -257.778)" fill="#fff"/>
  <path id="Trazado_15" data-name="Trazado 15" d="M0,362.667V368H5.333A5.338,5.338,0,0,0,0,362.667Z" transform="translate(0 -336)" fill="#fff"/>
  <path id="Trazado_16" data-name="Trazado 16" d="M35.556,42.667h-32A3.555,3.555,0,0,0,0,46.222v5.333H3.556V46.222h32V71.111H23.111v3.556H35.555a3.555,3.555,0,0,0,3.556-3.556V46.222A3.555,3.555,0,0,0,35.556,42.667Z" transform="translate(0 -42.667)" fill="#fff"/>
</svg>
